<svg width="431" height="94" viewBox="0 0 431 94" fill="none" xmlns="http://www.w3.org/2000/svg">
<g filter="url(#filter0_d_601_12)">
<path d="M3.08 62V32.8H8.08V44.52H15.92V32.8H20.92V62H15.92V49.04H8.08V62H3.08ZM33.4644 62V51.4L24.9044 32.8H30.1444L34.7044 42.92C35.051 43.72 35.3444 44.5067 35.5844 45.28C35.8244 46.0533 35.9844 46.6533 36.0644 47.08C36.171 46.6533 36.331 46.0533 36.5444 45.28C36.7844 44.5067 37.0777 43.72 37.4244 42.92L41.8644 32.8H47.0644L38.5044 51.4V62H33.4644ZM51.0488 62V32.8H60.7688C62.7154 32.8 64.4088 33.1733 65.8488 33.92C67.3154 34.6667 68.4488 35.72 69.2488 37.08C70.0488 38.4133 70.4488 39.9867 70.4488 41.8C70.4488 43.6133 70.0488 45.2 69.2488 46.56C68.4488 47.8933 67.3154 48.9333 65.8488 49.68C64.4088 50.4267 62.7154 50.8 60.7688 50.8H56.0488V62H51.0488ZM56.0488 46.4H60.7688C62.1821 46.4 63.3021 45.9733 64.1288 45.12C64.9554 44.2667 65.3688 43.16 65.3688 41.8C65.3688 40.44 64.9554 39.3333 64.1288 38.48C63.3021 37.6267 62.1821 37.2 60.7688 37.2H56.0488V46.4ZM75.4731 62V32.8H92.9931V37.2H80.3931V44.8H91.5931V49.04H80.3931V57.6H92.9931V62H75.4731ZM98.9375 62V32.8H107.618C109.591 32.8 111.298 33.1867 112.738 33.96C114.204 34.7067 115.338 35.76 116.137 37.12C116.938 38.48 117.338 40.08 117.338 41.92V52.84C117.338 54.68 116.938 56.2933 116.137 57.68C115.338 59.04 114.204 60.1067 112.738 60.88C111.298 61.6267 109.591 62 107.618 62H98.9375ZM103.938 57.52H107.618C109.058 57.52 110.204 57.1067 111.058 56.28C111.911 55.4267 112.338 54.28 112.338 52.84V41.92C112.338 40.5067 111.911 39.3867 111.058 38.56C110.204 37.7067 109.058 37.28 107.618 37.28H103.938V57.52ZM132.002 62.4C130.002 62.4 128.269 62.0667 126.802 61.4C125.362 60.7067 124.229 59.7467 123.402 58.52C122.602 57.2667 122.202 55.8 122.202 54.12H127.202C127.202 55.32 127.642 56.28 128.522 57C129.402 57.6933 130.575 58.04 132.042 58.04C133.482 58.04 134.602 57.6933 135.402 57C136.229 56.3067 136.642 55.36 136.642 54.16C136.642 53.1733 136.362 52.3333 135.802 51.64C135.242 50.92 134.469 50.4267 133.482 50.16L129.962 49.2C127.695 48.5867 125.935 47.5333 124.682 46.04C123.429 44.52 122.802 42.6933 122.802 40.56C122.802 38.08 123.629 36.1067 125.282 34.64C126.935 33.1467 129.162 32.4 131.962 32.4C134.789 32.4 137.029 33.1333 138.682 34.6C140.362 36.04 141.202 37.9867 141.202 40.44H136.202C136.202 39.32 135.815 38.4267 135.042 37.76C134.295 37.0933 133.255 36.76 131.922 36.76C130.615 36.76 129.589 37.0933 128.842 37.76C128.122 38.4 127.762 39.3067 127.762 40.48C127.762 41.3867 128.029 42.1733 128.562 42.84C129.122 43.5067 129.922 43.9733 130.962 44.24L134.522 45.24C136.789 45.8533 138.535 46.92 139.762 48.44C141.015 49.9333 141.642 51.7867 141.642 54C141.642 55.68 141.242 57.16 140.442 58.44C139.642 59.6933 138.522 60.6667 137.082 61.36C135.642 62.0533 133.949 62.4 132.002 62.4ZM146.786 62V32.8H152.906L161.026 56.4C160.946 55.5467 160.866 54.5467 160.786 53.4C160.706 52.2267 160.626 51.04 160.546 49.84C160.493 48.64 160.466 47.5733 160.466 46.64V32.8H165.026V62H158.906L150.866 38.4C150.92 39.1733 150.986 40.1067 151.066 41.2C151.146 42.2933 151.213 43.4133 151.266 44.56C151.32 45.7067 151.346 46.76 151.346 47.72V62H146.786ZM171.411 62V32.8H188.931V37.2H176.331V44.8H187.531V49.04H176.331V57.6H188.931V62H171.411ZM193.275 62L200.635 32.8H207.075L214.475 62H209.355L207.755 54.92H199.995L198.395 62H193.275ZM200.915 50.84H206.835L205.075 43C204.782 41.6933 204.528 40.52 204.315 39.48C204.102 38.4133 203.955 37.64 203.875 37.16C203.795 37.64 203.648 38.4133 203.435 39.48C203.222 40.52 202.968 41.68 202.675 42.96L200.915 50.84ZM218.899 62V32.8H223.899V44.72H227.339L232.899 32.8H238.299L231.739 46.72L238.619 62H233.059L227.299 49.08H223.899V62H218.899ZM243.364 62V32.8H260.884V37.2H248.284V44.8H259.484V49.04H248.284V57.6H260.884V62H243.364ZM266.868 62V32.8H276.108C278.055 32.8 279.735 33.16 281.148 33.88C282.588 34.6 283.708 35.6133 284.508 36.92C285.308 38.2 285.708 39.72 285.708 41.48C285.708 43.4267 285.215 45.1333 284.228 46.6C283.268 48.04 281.961 49.0667 280.308 49.68L286.108 62H280.508L275.428 50.4H271.868V62H266.868ZM271.868 46H276.108C277.521 46 278.628 45.6133 279.428 44.84C280.228 44.0667 280.628 43 280.628 41.64C280.628 40.28 280.215 39.2 279.388 38.4C278.588 37.6 277.495 37.2 276.108 37.2H271.868V46ZM299.893 62.4C297.893 62.4 296.159 62.0667 294.693 61.4C293.253 60.7067 292.119 59.7467 291.293 58.52C290.493 57.2667 290.093 55.8 290.093 54.12H295.093C295.093 55.32 295.533 56.28 296.413 57C297.293 57.6933 298.466 58.04 299.933 58.04C301.373 58.04 302.493 57.6933 303.293 57C304.119 56.3067 304.533 55.36 304.533 54.16C304.533 53.1733 304.253 52.3333 303.693 51.64C303.133 50.92 302.359 50.4267 301.373 50.16L297.853 49.2C295.586 48.5867 293.826 47.5333 292.573 46.04C291.319 44.52 290.693 42.6933 290.693 40.56C290.693 38.08 291.519 36.1067 293.173 34.64C294.826 33.1467 297.053 32.4 299.853 32.4C302.679 32.4 304.919 33.1333 306.573 34.6C308.253 36.04 309.093 37.9867 309.093 40.44H304.093C304.093 39.32 303.706 38.4267 302.933 37.76C302.186 37.0933 301.146 36.76 299.813 36.76C298.506 36.76 297.479 37.0933 296.733 37.76C296.013 38.4 295.653 39.3067 295.653 40.48C295.653 41.3867 295.919 42.1733 296.453 42.84C297.013 43.5067 297.813 43.9733 298.853 44.24L302.413 45.24C304.679 45.8533 306.426 46.92 307.653 48.44C308.906 49.9333 309.533 51.7867 309.533 54C309.533 55.68 309.133 57.16 308.333 58.44C307.533 59.6933 306.413 60.6667 304.973 61.36C303.533 62.0533 301.839 62.4 299.893 62.4Z" fill="white"/>
</g>
<g filter="url(#filter1_d_601_12)">
<path d="M345.868 57.3954C345.868 56.9425 345.547 56.6406 345.065 56.6406H331.092C330.611 56.6406 330.289 56.9425 330.289 57.3954C330.289 57.8483 330.611 58.1503 331.092 58.1503H345.065C345.547 58.1503 345.868 57.7728 345.868 57.3954Z" fill="white"/>
<path d="M334.305 60.4148H332.699C332.217 60.4148 331.896 60.7167 331.896 61.1696C331.896 61.6226 332.217 61.9245 332.699 61.9245H334.305C334.787 61.9245 335.108 61.6226 335.108 61.1696C335.108 60.7167 334.787 60.4148 334.305 60.4148Z" fill="white"/>
<path d="M338.079 53.6212C338.079 53.1683 337.758 52.8664 337.276 52.8664H329.487C329.005 52.8664 328.684 53.1683 328.684 53.6212C328.684 54.0742 329.005 54.3761 329.487 54.3761H337.276C337.758 54.3761 338.079 53.9987 338.079 53.6212Z" fill="white"/>
<path d="M377.988 54.9044C377.748 54.4515 377.266 54.0741 376.784 53.8476L370.681 51.6586L368.192 50.8282C367.469 50.5263 366.827 50.0734 366.425 49.4695L364.337 46.2236C364.739 46.1482 364.98 45.8462 364.98 45.4688C364.98 45.0159 364.658 44.7139 364.177 44.7139H363.374L362.41 43.2042C362.812 43.1288 363.052 42.8268 363.052 42.4494C363.052 41.9965 362.731 41.6945 362.249 41.6945H361.446L360.643 40.4868C360.965 40.4113 361.206 40.1094 361.206 39.8074C361.206 39.3545 360.884 39.0526 360.403 39.0526H359.68L358.636 37.4674C358.636 37.4674 358.636 37.3919 358.556 37.3919C357.592 36.3351 356.307 35.8067 354.942 35.9577C353.738 36.1087 352.774 36.788 352.372 37.6184C352.292 37.8448 352.292 38.0713 352.453 38.2977L359.118 49.0166C359.198 49.1676 359.359 49.3185 359.519 49.3185L367.71 52.2624H367.79L370.199 53.0928L376.222 55.2818C376.382 55.3573 376.543 55.4328 376.623 55.6593C376.945 56.2631 376.945 56.867 376.543 57.4709H363.454C362.651 57.4709 361.848 57.2444 361.206 56.7915L338.802 41.1662C338.802 41.1662 339.123 41.0152 339.524 40.4868C339.926 39.9584 340.086 39.279 340.086 38.5997L339.364 32.2589L340.327 30.8247C340.568 30.5228 341.05 30.4473 341.371 30.6737C341.612 30.9002 342.576 31.6551 344.904 35.2028C346.109 36.8635 348.036 38.0713 350.204 38.3732C350.606 38.4487 351.088 38.1468 351.168 37.7693C351.248 37.3919 350.927 36.939 350.525 36.8635C348.839 36.5616 347.233 35.6558 346.27 34.297C343.459 30.2208 342.656 29.617 342.335 29.3905C341.291 28.7111 339.845 28.9376 339.042 29.9189L334.144 37.2409C333.823 37.6938 333.743 38.2222 333.823 38.7506C333.341 38.9016 332.859 39.1281 332.618 39.581L331.333 41.4681C330.611 42.4494 330.932 43.8081 331.976 44.4875C332.699 45.0159 334.224 45.9217 336.473 47.2804C336.633 47.3559 336.794 47.4314 336.874 47.4314C337.115 47.4314 337.356 47.2804 337.517 47.054C337.758 46.6766 337.677 46.2236 337.276 45.9972C335.108 44.6385 333.582 43.7326 332.859 43.2042C332.538 42.9778 332.458 42.6004 332.699 42.2229L333.903 40.4868C334.144 40.1848 334.626 40.1094 334.947 40.3358L360.162 57.9993C361.125 58.6787 362.249 58.9806 363.374 58.9806H374.455C372.769 59.7355 370.44 60.4148 368.433 60.4148H365.622H363.293C361.928 60.4148 360.563 60.0374 359.439 59.358C354.781 56.5651 346.109 51.3566 339.765 47.5069C339.364 47.2804 338.882 47.3559 338.641 47.7333C338.4 48.1108 338.48 48.5637 338.882 48.7901C345.065 52.5644 353.497 57.6219 358.234 60.4903H337.517C337.035 60.4903 336.714 60.7922 336.714 61.2451C336.714 61.6981 337.035 62 337.517 62H363.293H365.622H368.352C371.645 62 376.382 60.3393 377.587 58.7541C378.631 57.3954 378.711 56.1122 377.988 54.9044ZM360.242 48.1108L353.978 38.0713C354.219 37.8448 354.621 37.6184 355.103 37.5429C355.584 37.4674 356.468 37.5429 357.271 38.3732L357.753 39.1281H357.03C356.548 39.1281 356.227 39.43 356.227 39.8829C356.227 40.3358 356.548 40.6378 357.03 40.6378H358.716L359.519 41.8455H358.877C358.395 41.8455 358.074 42.1475 358.074 42.6004C358.074 43.0533 358.395 43.3552 358.877 43.3552H360.483L361.446 44.7894H360.804C360.322 44.7894 360.001 45.0914 360.001 45.5443C360.001 45.9972 360.322 46.2991 360.804 46.2991H362.41L364.658 49.6205L360.242 48.1108ZM335.509 38.0713L337.998 34.3725L338.48 38.7506C338.48 39.0526 338.4 39.3545 338.239 39.581C338.079 39.8074 337.758 40.4113 337.035 39.8829C337.035 39.8829 336.633 39.6565 335.911 39.1281C335.429 38.7506 335.349 38.3732 335.509 38.0713Z" fill="white"/>
</g>
<defs>
<filter id="filter0_d_601_12" x="0.0799866" y="27.4" width="320.453" height="44" filterUnits="userSpaceOnUse" color-interpolation-filters="sRGB">
<feFlood flood-opacity="0" result="BackgroundImageFix"/>
<feColorMatrix in="SourceAlpha" type="matrix" values="0 0 0 0 0 0 0 0 0 0 0 0 0 0 0 0 0 0 127 0" result="hardAlpha"/>
<feOffset dx="4" dy="2"/>
<feGaussianBlur stdDeviation="3.5"/>
<feComposite in2="hardAlpha" operator="out"/>
<feColorMatrix type="matrix" values="0 0 0 0 0.768627 0 0 0 0 0.768627 0 0 0 0 0.768627 0 0 0 1 0"/>
<feBlend mode="normal" in2="BackgroundImageFix" result="effect1_dropShadow_601_12"/>
<feBlend mode="normal" in="SourceGraphic" in2="effect1_dropShadow_601_12" result="shape"/>
</filter>
<filter id="filter1_d_601_12" x="324.684" y="29" width="57.779" height="41" filterUnits="userSpaceOnUse" color-interpolation-filters="sRGB">
<feFlood flood-opacity="0" result="BackgroundImageFix"/>
<feColorMatrix in="SourceAlpha" type="matrix" values="0 0 0 0 0 0 0 0 0 0 0 0 0 0 0 0 0 0 127 0" result="hardAlpha"/>
<feOffset dy="4"/>
<feGaussianBlur stdDeviation="2"/>
<feComposite in2="hardAlpha" operator="out"/>
<feColorMatrix type="matrix" values="0 0 0 0 0 0 0 0 0 0 0 0 0 0 0 0 0 0 0.25 0"/>
<feBlend mode="normal" in2="BackgroundImageFix" result="effect1_dropShadow_601_12"/>
<feBlend mode="normal" in="SourceGraphic" in2="effect1_dropShadow_601_12" result="shape"/>
</filter>
</defs>
</svg>
