<svg width="332" height="61" viewBox="0 0 332 61" fill="none" xmlns="http://www.w3.org/2000/svg">
<g clip-path="url(#clip0_601_12)">
<g filter="url(#filter0_d_601_12)">
<path d="M2.618 46V21.18H6.868V31.142H13.532V21.18H17.782V46H13.532V34.984H6.868V46H2.618ZM28.4447 46V36.99L21.1687 21.18H25.6227L29.4987 29.782C29.7934 30.462 30.0427 31.1307 30.2467 31.788C30.4507 32.4453 30.5867 32.9553 30.6547 33.318C30.7454 32.9553 30.8814 32.4453 31.0627 31.788C31.2667 31.1307 31.5161 30.462 31.8107 29.782L35.5847 21.18H40.0047L32.7287 36.99V46H28.4447ZM43.3914 46V21.18H51.6534C53.3081 21.18 54.7474 21.4973 55.9714 22.132C57.2181 22.7667 58.1814 23.662 58.8614 24.818C59.5414 25.9513 59.8814 27.2887 59.8814 28.83C59.8814 30.3713 59.5414 31.72 58.8614 32.876C58.1814 34.0093 57.2181 34.8933 55.9714 35.528C54.7474 36.1627 53.3081 36.48 51.6534 36.48H47.6414V46H43.3914ZM47.6414 32.74H51.6534C52.8548 32.74 53.8068 32.3773 54.5094 31.652C55.2121 30.9267 55.5634 29.986 55.5634 28.83C55.5634 27.674 55.2121 26.7333 54.5094 26.008C53.8068 25.2827 52.8548 24.92 51.6534 24.92H47.6414V32.74ZM64.1522 46V21.18H79.0442V24.92H68.3342V31.38H77.8542V34.984H68.3342V42.26H79.0442V46H64.1522ZM84.0969 46V21.18H91.4749C93.1522 21.18 94.6029 21.5087 95.8269 22.166C97.0735 22.8007 98.0369 23.696 98.7169 24.852C99.3969 26.008 99.7369 27.368 99.7369 28.932V38.214C99.7369 39.778 99.3969 41.1493 98.7169 42.328C98.0369 43.484 97.0735 44.3907 95.8269 45.048C94.6029 45.6827 93.1522 46 91.4749 46H84.0969ZM88.3469 42.192H91.4749C92.6989 42.192 93.6735 41.8407 94.3989 41.138C95.1242 40.4127 95.4869 39.438 95.4869 38.214V28.932C95.4869 27.7307 95.1242 26.7787 94.3989 26.076C93.6735 25.3507 92.6989 24.988 91.4749 24.988H88.3469V42.192ZM112.202 46.34C110.502 46.34 109.028 46.0567 107.782 45.49C106.558 44.9007 105.594 44.0847 104.892 43.042C104.212 41.9767 103.872 40.73 103.872 39.302H108.122C108.122 40.322 108.496 41.138 109.244 41.75C109.992 42.3393 110.989 42.634 112.236 42.634C113.46 42.634 114.412 42.3393 115.092 41.75C115.794 41.1607 116.146 40.356 116.146 39.336C116.146 38.4973 115.908 37.7833 115.432 37.194C114.956 36.582 114.298 36.1627 113.46 35.936L110.468 35.12C108.541 34.5987 107.045 33.7033 105.98 32.434C104.914 31.142 104.382 29.5893 104.382 27.776C104.382 25.668 105.084 23.9907 106.49 22.744C107.895 21.4747 109.788 20.84 112.168 20.84C114.57 20.84 116.474 21.4633 117.88 22.71C119.308 23.934 120.022 25.5887 120.022 27.674H115.772C115.772 26.722 115.443 25.9627 114.786 25.396C114.151 24.8293 113.267 24.546 112.134 24.546C111.023 24.546 110.15 24.8293 109.516 25.396C108.904 25.94 108.598 26.7107 108.598 27.708C108.598 28.4787 108.824 29.1473 109.278 29.714C109.754 30.2807 110.434 30.6773 111.318 30.904L114.344 31.754C116.27 32.2753 117.755 33.182 118.798 34.474C119.863 35.7433 120.396 37.3187 120.396 39.2C120.396 40.628 120.056 41.886 119.376 42.974C118.696 44.0393 117.744 44.8667 116.52 45.456C115.296 46.0453 113.856 46.34 112.202 46.34ZM124.768 46V21.18H129.97L136.872 41.24C136.804 40.5147 136.736 39.6647 136.668 38.69C136.6 37.6927 136.532 36.684 136.464 35.664C136.419 34.644 136.396 33.7373 136.396 32.944V21.18H140.272V46H135.07L128.236 25.94C128.282 26.5973 128.338 27.3907 128.406 28.32C128.474 29.2493 128.531 30.2013 128.576 31.176C128.622 32.1507 128.644 33.046 128.644 33.862V46H124.768ZM145.699 46V21.18H160.591V24.92H149.881V31.38H159.401V34.984H149.881V42.26H160.591V46H145.699ZM164.284 46L170.54 21.18H176.014L182.304 46H177.952L176.592 39.982H169.996L168.636 46H164.284ZM170.778 36.514H175.81L174.314 29.85C174.064 28.7393 173.849 27.742 173.668 26.858C173.486 25.9513 173.362 25.294 173.294 24.886C173.226 25.294 173.101 25.9513 172.92 26.858C172.738 27.742 172.523 28.728 172.274 29.816L170.778 36.514ZM186.064 46V21.18H190.314V31.312H193.238L197.964 21.18H202.554L196.978 33.012L202.826 46H198.1L193.204 35.018H190.314V46H186.064ZM206.859 46V21.18H221.751V24.92H211.041V31.38H220.561V34.984H211.041V42.26H221.751V46H206.859ZM226.838 46V21.18H234.692C236.347 21.18 237.775 21.486 238.976 22.098C240.2 22.71 241.152 23.5713 241.832 24.682C242.512 25.77 242.852 27.062 242.852 28.558C242.852 30.2127 242.433 31.6633 241.594 32.91C240.778 34.134 239.667 35.0067 238.262 35.528L243.192 46H238.432L234.114 36.14H231.088V46H226.838ZM231.088 32.4H234.692C235.893 32.4 236.834 32.0713 237.514 31.414C238.194 30.7567 238.534 29.85 238.534 28.694C238.534 27.538 238.183 26.62 237.48 25.94C236.8 25.26 235.871 24.92 234.692 24.92H231.088V32.4ZM254.909 46.34C253.209 46.34 251.735 46.0567 250.489 45.49C249.265 44.9007 248.301 44.0847 247.599 43.042C246.919 41.9767 246.579 40.73 246.579 39.302H250.829C250.829 40.322 251.203 41.138 251.951 41.75C252.699 42.3393 253.696 42.634 254.943 42.634C256.167 42.634 257.119 42.3393 257.799 41.75C258.501 41.1607 258.853 40.356 258.853 39.336C258.853 38.4973 258.615 37.7833 258.139 37.194C257.663 36.582 257.005 36.1627 256.167 35.936L253.175 35.12C251.248 34.5987 249.752 33.7033 248.687 32.434C247.621 31.142 247.089 29.5893 247.089 27.776C247.089 25.668 247.791 23.9907 249.197 22.744C250.602 21.4747 252.495 20.84 254.875 20.84C257.277 20.84 259.181 21.4633 260.587 22.71C262.015 23.934 262.729 25.5887 262.729 27.674H258.479C258.479 26.722 258.15 25.9627 257.493 25.396C256.858 24.8293 255.974 24.546 254.841 24.546C253.73 24.546 252.857 24.8293 252.223 25.396C251.611 25.94 251.305 26.7107 251.305 27.708C251.305 28.4787 251.531 29.1473 251.985 29.714C252.461 30.2807 253.141 30.6773 254.025 30.904L257.051 31.754C258.977 32.2753 260.462 33.182 261.505 34.474C262.57 35.7433 263.103 37.3187 263.103 39.2C263.103 40.628 262.763 41.886 262.083 42.974C261.403 44.0393 260.451 44.8667 259.227 45.456C258.003 46.0453 256.563 46.34 254.909 46.34Z" fill="white"/>
</g>
<path d="M290.932 44.6836C290.932 44.2739 290.615 44.0008 290.14 44.0008H276.374C275.899 44.0008 275.582 44.2739 275.582 44.6836C275.582 45.0932 275.899 45.3663 276.374 45.3663H290.14C290.615 45.3663 290.932 45.025 290.932 44.6836Z" fill="#7B1DF3"/>
<path d="M279.538 47.4146H277.956C277.481 47.4146 277.165 47.6877 277.165 48.0974C277.165 48.507 277.481 48.7801 277.956 48.7801H279.538C280.013 48.7801 280.33 48.507 280.33 48.0974C280.33 47.6877 280.013 47.4146 279.538 47.4146Z" fill="#7B1DF3"/>
<path d="M283.257 41.2698C283.257 40.8601 282.941 40.587 282.466 40.587H274.791C274.316 40.587 274 40.8601 274 41.2698C274 41.6794 274.316 41.9525 274.791 41.9525H282.466C282.941 41.9525 283.257 41.6112 283.257 41.2698Z" fill="#7B1DF3"/>
<path d="M322.58 42.4305C322.342 42.0208 321.867 41.6794 321.393 41.4746L315.38 39.4946L312.927 38.7436C312.215 38.4705 311.582 38.0608 311.186 37.5146L309.129 34.5787C309.525 34.5105 309.762 34.2374 309.762 33.896C309.762 33.4863 309.446 33.2132 308.971 33.2132H308.18L307.23 31.8477C307.626 31.7794 307.863 31.5063 307.863 31.1649C307.863 30.7553 307.547 30.4822 307.072 30.4822H306.281L305.49 29.3898C305.806 29.3215 306.044 29.0484 306.044 28.7753C306.044 28.3656 305.727 28.0925 305.252 28.0925H304.54L303.512 26.6587C303.512 26.6587 303.512 26.5905 303.433 26.5905C302.483 25.6346 301.217 25.1567 299.872 25.2932C298.685 25.4298 297.736 26.0443 297.34 26.7953C297.261 27.0001 297.261 27.2049 297.419 27.4098L303.986 37.105C304.066 37.2415 304.224 37.3781 304.382 37.3781L312.452 40.0408H312.531L314.905 40.7919L320.839 42.7719C320.997 42.8401 321.155 42.9084 321.235 43.1132C321.551 43.6594 321.551 44.2057 321.155 44.7519H308.259C307.468 44.7519 306.676 44.547 306.044 44.1374L283.969 30.0043C283.969 30.0043 284.286 29.8677 284.681 29.3898C285.077 28.9118 285.235 28.2974 285.235 27.6829L284.523 21.9477L285.472 20.6505C285.71 20.3773 286.184 20.3091 286.501 20.5139C286.738 20.7187 287.688 21.4015 289.982 24.6105C291.169 26.1125 293.068 27.2049 295.204 27.478C295.6 27.5463 296.074 27.2732 296.154 26.9318C296.233 26.5905 295.916 26.1808 295.521 26.1125C293.859 25.8394 292.277 25.0201 291.327 23.7911C288.558 20.1042 287.767 19.558 287.45 19.3532C286.422 18.7387 284.998 18.9436 284.206 19.8311L279.38 26.4539C279.064 26.8636 278.985 27.3415 279.064 27.8194C278.589 27.956 278.114 28.1608 277.877 28.5705L276.611 30.2774C275.899 31.1649 276.215 32.3939 277.244 33.0084C277.956 33.4863 279.459 34.3056 281.675 35.5346C281.833 35.6029 281.991 35.6712 282.07 35.6712C282.308 35.6712 282.545 35.5346 282.703 35.3298C282.941 34.9884 282.861 34.5787 282.466 34.3739C280.33 33.145 278.826 32.3256 278.114 31.8477C277.798 31.6429 277.719 31.3015 277.956 30.9601L279.143 29.3898C279.38 29.1167 279.855 29.0484 280.171 29.2532L305.015 45.2298C305.964 45.8443 307.072 46.1174 308.18 46.1174H319.098C317.437 46.8001 315.142 47.4146 313.164 47.4146H310.395H308.101C306.756 47.4146 305.411 47.0732 304.303 46.4588C299.714 43.9326 291.169 39.2215 284.919 35.7394C284.523 35.5346 284.048 35.6029 283.811 35.9443C283.574 36.2856 283.653 36.6953 284.048 36.9001C290.14 40.3139 298.448 44.8884 303.116 47.4829H282.703C282.228 47.4829 281.912 47.756 281.912 48.1657C281.912 48.5753 282.228 48.8484 282.703 48.8484H308.101H310.395H313.085C316.329 48.8484 320.997 47.3464 322.184 45.9126C323.213 44.6836 323.292 43.5229 322.58 42.4305ZM305.094 36.2856L298.923 27.2049C299.16 27.0001 299.556 26.7953 300.03 26.727C300.505 26.6587 301.375 26.727 302.167 27.478L302.641 28.1608H301.929C301.455 28.1608 301.138 28.4339 301.138 28.8436C301.138 29.2532 301.455 29.5263 301.929 29.5263H303.591L304.382 30.6187H303.749C303.274 30.6187 302.958 30.8918 302.958 31.3015C302.958 31.7112 303.274 31.9843 303.749 31.9843H305.331L306.281 33.2815H305.648C305.173 33.2815 304.857 33.5546 304.857 33.9643C304.857 34.3739 305.173 34.647 305.648 34.647H307.23L309.446 37.6512L305.094 36.2856ZM280.725 27.2049L283.178 23.8594L283.653 27.8194C283.653 28.0925 283.574 28.3656 283.415 28.5705C283.257 28.7753 282.941 29.3215 282.228 28.8436C282.228 28.8436 281.833 28.6387 281.121 28.1608C280.646 27.8194 280.567 27.478 280.725 27.2049Z" fill="#7B1DF3"/>
</g>
<defs>
<filter id="filter0_d_601_12" x="-1.38196" y="20.84" width="268.485" height="33.5" filterUnits="userSpaceOnUse" color-interpolation-filters="sRGB">
<feFlood flood-opacity="0" result="BackgroundImageFix"/>
<feColorMatrix in="SourceAlpha" type="matrix" values="0 0 0 0 0 0 0 0 0 0 0 0 0 0 0 0 0 0 127 0" result="hardAlpha"/>
<feOffset dy="4"/>
<feGaussianBlur stdDeviation="2"/>
<feComposite in2="hardAlpha" operator="out"/>
<feColorMatrix type="matrix" values="0 0 0 0 0 0 0 0 0 0 0 0 0 0 0 0 0 0 0.25 0"/>
<feBlend mode="normal" in2="BackgroundImageFix" result="effect1_dropShadow_601_12"/>
<feBlend mode="normal" in="SourceGraphic" in2="effect1_dropShadow_601_12" result="shape"/>
</filter>
<clipPath id="clip0_601_12">
<rect width="332" height="61" fill="white"/>
</clipPath>
</defs>
</svg>
